{
  "accessors": [
    {
      "bufferView": 1,
      "componentType": 5126,
      "count": 65532,
      "max": [
        6.2831802368164062,
        6.2831802368164062,
        6.2831802368164062
      ],
      "min": [
        -6.2831802368164062,
        -6.2831802368164062,
        -6.2831802368164062
      ],
      "type": "VEC3"
    },
    {
      "bufferView": 1,
      "byteOffset": 786384,
      "componentType": 5126,
      "count": 65532,
      "max": [
        0.9996950626373291,
        0.99994409084320068,
        0.99981153011322021
      ],
      "min": [
        -0.99966681003570557,
        -0.99994397163391113,
        -0.99969565868377686
      ],
      "type": "VEC3"
    },
    {
      "bufferView": 0,
      "componentType": 5125,
      "count": 318591,
      "max": [
        65531
      ],
      "min": [
        0
      ],
      "type": "SCALAR"
    },
    {
      "bufferView": 1,
      "byteOffset": 1572768,
      "componentType": 5126,
      "count": 65532,
      "max": [
        6.2831802368164062,
        6.2831802368164062,
        6.2831802368164062
      ],
      "min": [
        -6.2831802368164062,
        -6.2831802368164062,
        -6.2831802368164062
      ],
      "type": "VEC3"
    },
    {
      "bufferView": 1,
      "byteOffset": 2359152,
      "componentType": 5126,
      "count": 65532,
      "max": [
        0.99970877170562744,
        0.99994409084320068,
        0.99981164932250977
      ],
      "min": [
        -1,
        -0.99994409084320068,
        -0.99970066547393799
      ],
      "type": "VEC3"
    },
    {
      "bufferView": 0,
      "byteOffset": 1274364,
      "componentType": 5125,
      "count": 315699,
      "max": [
        65531
      ],
      "min": [
        0
      ],
      "type": "SCALAR"
    },
    {
      "bufferView": 1,
      "byteOffset": 3145536,
      "componentType": 5126,
      "count": 61389,
      "max": [
        6.2831802368164062,
        6.2831802368164062,
        6.2831802368164062
      ],
      "min": [
        -6.2831802368164062,
        -6.2831802368164062,
        -6.2831802368164062
      ],
      "type": "VEC3"
    },
    {
      "bufferView": 1,
      "byteOffset": 3882204,
      "componentType": 5126,
      "count": 61389,
      "max": [
        1,
        0.99994409084320068,
        1
      ],
      "min": [
        -1,
        -1,
        -1
      ],
      "type": "VEC3"
    },
    {
      "bufferView": 0,
      "byteOffset": 2537160,
      "componentType": 5125,
      "count": 220593,
      "max": [
        61388
      ],
      "min": [
        0
      ],
      "type": "SCALAR"
    }
  ],
  "asset": {
    "extras": {
      "author": "zphill15 (https://sketchfab.com/zphill15)",
      "license": "CC-BY-4.0 (http://creativecommons.org/licenses/by/4.0/)",
      "source": "https://sketchfab.com/3d-models/argo-main-7ef06a5301284eb19d7af80afcb22976",
      "title": "Argo Main"
    },
    "generator": "Sketchfab-7.44.0",
    "version": "2.0"
  },
  "bufferViews": [
    {
      "buffer": 0,
      "byteLength": 3419532,
      "byteOffset": 0,
      "name": "floatBufferViews",
      "target": 34963
    },
    {
      "buffer": 0,
      "byteLength": 4618872,
      "byteOffset": 3419532,
      "byteStride": 12,
      "name": "floatBufferViews",
      "target": 34962
    }
  ],
  "buffers": [
    {
      "byteLength": 8038404,
      "uri": "scene.bin"
    }
  ],
  "materials": [
    {
      "doubleSided": true,
      "name": "DefaultMaterial",
      "pbrMetallicRoughness": {
        "baseColorFactor": [
          0.32889590101918736,
          0.00050488032206731507,
          0.43153115889774468,
          1
        ],
        "metallicFactor": 1,
        "roughnessFactor": 0.26657774390243905
      }
    }
  ],
  "meshes": [
    {
      "primitives": [
        {
          "attributes": {
            "NORMAL": 1,
            "POSITION": 0
          },
          "indices": 2,
          "material": 0,
          "mode": 4
        }
      ]
    },
    {
      "primitives": [
        {
          "attributes": {
            "NORMAL": 4,
            "POSITION": 3
          },
          "indices": 5,
          "material": 0,
          "mode": 4
        }
      ]
    },
    {
      "primitives": [
        {
          "attributes": {
            "NORMAL": 7,
            "POSITION": 6
          },
          "indices": 8,
          "material": 0,
          "mode": 4
        }
      ]
    }
  ],
  "nodes": [
    {
      "children": [
        1
      ],
      "name": "RootNode (gltf orientation matrix)",
      "rotation": [
        -0.70710678118654746,
        -0,
        -0,
        0.70710678118654757
      ]
    },
    {
      "children": [
        2
      ],
      "name": "RootNode (model correction matrix)"
    },
    {
      "children": [
        3,
        4,
        5
      ],
      "name": "ArgoMain.obj.cleaner.materialmerger.gles"
    },
    {
      "mesh": 0,
      "name": ""
    },
    {
      "mesh": 1,
      "name": ""
    },
    {
      "mesh": 2,
      "name": ""
    }
  ],
  "scene": 0,
  "scenes": [
    {
      "name": "OSG_Scene",
      "nodes": [
        0
      ]
    }
  ]
}

